<?xml version="1.0" encoding="UTF-8"?>
<svg width="691px" height="426px" viewBox="0 0 691 426" version="1.1" xmlns="http://www.w3.org/2000/svg" xmlns:xlink="http://www.w3.org/1999/xlink">
    <!-- Generator: Sketch 55 (78076) - https://sketchapp.com -->
    <title>Empty State</title>
    <desc>Created with Sketch.</desc>
    <g id="Page-1" stroke="none" stroke-width="1" fill="none" fill-rule="evenodd">
        <g id="Home-GatewayNotConfigured" transform="translate(-375.000000, -235.000000)">
            <g id="Empty-State" transform="translate(375.000000, 235.000000)">
                <g id="Scene/Home">
                    <g id="Background-Shape-2" opacity="0.345889137" transform="translate(13.000000, 0.000000)">
                        <path d="M0.206340551,172.384858 C7.10112455,95.3361561 377.035639,-53.3759549 445.712692,19.6030524 C514.389745,92.5820598 448.365277,229.544566 304.44354,264.617178 C160.521804,299.68979 -6.68844344,249.433559 0.206340551,172.384858 Z" id="Background-Shape" fill="#FFFFFF" transform="translate(236.500000, 138.000000) scale(-1, 1) translate(-236.500000, -138.000000) "></path>
                        <path d="M244.144372,222.447681 C250.320429,156.991794 581.692198,30.6550381 643.210212,92.65356 C704.728225,154.652082 689.156816,285.058789 560.237782,314.854345 C431.318748,344.649901 237.968315,287.903567 244.144372,222.447681 Z" id="Background-Shape" fill="#DDE3E9"></path>
                    </g>
                    <g id="Big-Leaf-Plant" transform="translate(0.000000, 128.000000)">
                        <g id="Big-Ass-Leaf" transform="translate(23.000000, 0.000000)">
                            <path d="M24.2579539,0.173093074 C27.1225306,-0.176878564 30.1799041,-0.0533400056 32.8438766,1.07736611 C38.5085416,3.48200834 40.1187317,10.1741436 40.0410516,15.6135182 C39.9573065,21.4680411 38.714051,27.8626602 43.1651162,32.5797909 C45.2111822,34.7484553 47.7563294,36.4081152 49.7654292,38.6166003 C51.9121851,40.9766643 53.5966293,43.6770468 54.8438343,46.5768289 C57.1338507,51.9031791 58.2578307,58.1668975 56.163736,63.7542738 C54.3199224,68.6736307 49.6810935,73.1137719 50.6834319,78.7075568 C51.728959,84.5429164 57.61221,89.0040977 61.290444,93.3505245 C65.4531656,98.2693182 69.2859018,104.555987 69.9155339,111.006469 C70.5192882,117.188324 67.8284074,123.440381 63.698769,128.113358 C55.447741,137.450738 43.0451661,142.028231 30.539564,141.999869 C25.2300259,141.987569 19.2185507,141.747768 14.6365623,138.894514 C13.2204324,138.012594 12.4733329,137.02316 11.6314834,135.647706 C10.8766749,134.414323 9.87957874,133.61206 8.72545995,132.739319 C6.18986484,130.822394 4.35871537,128.238844 3.19012177,125.346829 C-1.34777979,114.114023 2.27916675,100.217665 8.6312018,90.2428455 C10.1363537,87.8796069 11.3686453,85.6054629 10.6374364,82.7886216 C9.87439779,79.8481806 7.99901449,77.1960629 6.34025921,74.6685039 C4.70114537,72.1704875 2.82987864,69.7874137 1.54875756,67.0865102 C0.206992895,64.2571214 -0.170837286,61.2942757 0.066237497,58.1977452 C0.511803308,52.3811147 3.02273241,47.0134805 6.57766153,42.3356252 C10.0017161,37.8298272 14.0221277,33.5184764 14.0311362,27.6145236 C14.0410288,21.3571379 9.85773145,15.7908073 11.6398779,9.42897914 C12.3778032,6.79466143 13.8599543,4.09183557 16.2485499,2.51252303 C18.5392578,0.997846165 21.5638536,0.502237234 24.2579539,0.173093074 Z" id="leaf" fill="#DDE3E9"></path>
                            <path d="M22.3861597,10.1764309 C22.4398778,9.33604025 23.436749,8.83200515 24.2215077,9.05130108 C25.2544664,9.3400972 25.2346007,10.3052716 25.2073293,11.1651664 C25.1237304,13.8082784 25.5062963,16.3769517 26.1416559,18.9415199 C27.4621824,24.2735426 29.9026929,29.1861254 31.8361895,34.3079558 C33.7680009,39.4254986 34.6748339,44.7092068 33.5415523,50.1242976 C32.4732058,55.2299732 30.7948008,60.2033156 29.7014513,65.3154357 C28.7377524,69.8211129 27.7123306,74.5726024 29.1799208,79.0668063 C30.5921035,83.3928044 33.714245,86.9158566 35.9624576,90.8252937 C40.6165172,98.9180775 42.681267,107.896054 42.9574365,117.135184 C43.0854233,121.425481 42.970168,125.755229 41.9748682,129.963076 C41.4020068,132.385966 40.6321776,135.660394 38.5559237,137.333163 C37.5985099,138.104565 35.9610282,138.371304 35.1552196,137.228946 C34.3986826,136.157504 35.0623713,134.498805 35.3025457,133.356816 C36.3426754,128.413332 36.551926,123.361287 36.302904,118.341696 C36.061891,113.479563 35.4874289,108.625549 33.9571817,103.98201 C32.536907,99.6727381 30.379247,95.8021749 27.8398113,92.0324782 C25.2521442,88.1908938 22.562037,84.3411131 21.4928221,79.7892312 C20.4064684,75.1661343 21.2890218,70.4619848 22.4691168,65.9271792 C23.717096,61.1306341 25.3517536,56.4716876 27.0416981,51.8051023 C28.688607,47.2578629 29.2723555,42.9553657 28.3631928,38.1961513 C26.5671855,28.7935298 21.7598022,19.9681166 22.3861597,10.1764309 Z" id="middle-thing" fill="#C5CFD6"></path>
                        </g>
                        <g id="Big-Ass-Leaf" transform="translate(32.000000, 10.000000)">
                            <path d="M90.8923323,1.58227349 C94.4371815,2.65860484 97.957883,4.39521888 100.484813,7.11827966 C105.857908,12.908958 104.209295,21.6609092 101.243138,28.053245 C98.0504357,34.9333908 93.2122671,41.8490652 95.9396345,49.7432112 C97.193196,53.3723397 99.3011711,56.6591395 100.490327,60.3161304 C101.760821,64.2239944 102.30919,68.2938229 102.239325,72.3720051 C102.109984,79.8624039 100.11754,87.8547607 94.7080978,93.373143 C89.9453006,98.2317101 82.1575199,101.069515 80.3765031,108.20631 C78.5184553,115.651265 83.0609213,123.987774 85.0777737,131.041472 C87.360351,139.024107 88.5328812,148.452761 85.8618992,156.408818 C83.3025511,164.033728 76.8418128,170.027718 69.5281945,173.405772 C54.9151643,180.156033 37.9486721,179.117398 23.2958182,172.578162 C17.0747521,169.801475 10.1506305,166.390577 6.28452896,160.632591 C5.08969654,158.852907 4.73639937,157.294118 4.47600508,155.229521 C4.2426077,153.378223 3.49715739,151.910733 2.60478713,150.278208 C0.643995898,146.69213 -0.138196518,142.68415 0.0197662548,138.65605 C0.634485801,123.011122 12.2336238,108.463743 24.9562471,99.9717321 C27.9707605,97.9599181 30.6181436,95.9115216 31.2493822,92.1998602 C31.9086177,88.325468 31.1107853,84.2133878 30.5011993,80.3613088 C29.8990358,76.5543855 28.9638254,72.7626253 28.8887906,68.9019982 C28.8105393,64.857873 29.9334288,61.1573785 31.8482022,57.6186721 C35.4452563,50.9715661 41.2274568,45.9299031 47.869576,42.2471027 C54.2672493,38.6996981 61.2616135,35.6924899 64.392784,28.7150074 C67.7118026,21.3200057 65.7473551,12.5608727 71.200258,5.96432077 C73.4581719,3.232793 76.6252004,0.8074086 80.2615533,0.182273212 C83.7489295,-0.417345716 87.5584437,0.569996664 90.8923323,1.58227349 Z" id="leaf" fill="#DDE3E9"></path>
                            <path d="M83.6512541,13.8108813 C84.1542014,12.8438162 85.5838278,12.76941 86.3866021,13.4404234 C87.4431996,14.3238303 86.9144837,15.4564117 86.4322458,16.4604357 C84.9502268,19.5466855 84.0522837,22.7891134 83.4520845,26.1591764 C82.2036693,33.1656731 82.4845328,40.2624713 82.0629519,47.3413268 C81.6416462,54.4142215 79.9347993,61.1466733 75.7736201,66.9654284 C71.8504189,72.4517974 67.2831774,77.4617029 63.3273648,82.942599 C59.8407636,87.7732777 56.1532511,92.8627051 55.5155862,98.9541078 C54.9012266,104.817274 56.7068601,110.625805 57.2882412,116.433853 C58.4918732,128.456945 56.2042044,140.171178 51.6883608,151.25723 C49.5910773,156.405033 47.1887071,161.472065 43.8211358,165.93348 C41.8823541,168.502498 39.2672836,171.9767 35.9634293,172.869426 C34.4399139,173.281139 32.3854941,172.738768 32.0415379,170.963598 C31.7180544,169.298235 33.362815,167.681804 34.2417421,166.455303 C38.0470052,161.146218 40.9375702,155.273083 43.2752764,149.198186 C45.5398829,143.313954 47.4103318,137.264567 48.0529422,130.963476 C48.6490797,125.115876 48.1532232,119.401324 47.1581268,113.606123 C46.1442823,107.70051 45.0149464,101.731498 46.1486425,95.7805914 C47.2995951,89.7363667 50.7952573,84.6281193 54.5501475,79.8763654 C58.5214952,74.8502305 62.8729252,70.1897143 67.2930034,65.5491295 C71.6002552,61.0273221 74.5361665,56.238113 75.9655983,50.1255641 C78.7899076,38.049307 77.7906897,25.0782485 83.6512541,13.8108813 Z" id="middle-thing" fill="#C5CFD6"></path>
                        </g>
                        <g id="Big-Ass-Leaf" transform="translate(0.000000, 56.000000)">
                            <path d="M13.3059765,-1.56319402e-13 C19.200266,-1.56319402e-13 24.3823319,3.12436119 27.9530894,7.55793367 C32.133,12.74806 32.977213,19.0862362 34.674537,25.2719426 C35.5191207,28.3503093 36.9717453,31.4062221 39.5173606,33.4977007 C41.832736,35.3997692 44.7720948,35.7804002 47.5435009,36.7097048 C53.0822347,38.5668654 57.5546724,43.0406377 59.3209572,48.4994874 C61.4757949,55.1581758 59.1934169,61.8733613 59.5864189,68.6215035 C59.9471652,74.818799 66.0576058,78.6852277 70.9738392,81.6560327 C75.8214826,84.5855514 80.1886254,87.3278329 81.6486651,93.0347628 C83.196945,99.0875562 83.7163751,105.843666 81.5719185,111.822941 C78.0015318,121.778741 67.5524967,126.162697 57.4560511,126.842473 C48.2931709,127.459233 36.7719075,126.490815 29.8906637,119.839732 C25.7730402,115.859585 24.2818569,110.293173 24.4668644,104.75501 C24.581799,101.311223 25.2639913,97.8993066 26.1460214,94.571411 C26.7711171,92.2126578 27.6157008,89.864045 27.8563219,87.4267028 C28.4958771,80.9422138 22.5025956,79.6967428 17.4009839,77.9163603 C10.9183036,75.6535796 6.37987122,71.3797201 3.22399048,65.4254344 C0.285002382,59.8814769 -0.948134291,53.6581058 0.813701389,47.5542477 C1.71352782,44.4374919 3.34559866,41.6097404 5.55901596,39.2046306 C6.53336448,38.1460346 7.90664718,37.2630865 8.78608199,36.1508907 C9.60693725,35.1122136 9.42823254,33.766424 9.1453452,32.5499259 C7.83731568,26.930639 3.7619584,22.2775971 2.30451394,16.6684507 C0.988698535,11.6054427 1.76654602,5.30420703 6.395443,2.0378788 C8.39530446,0.626538178 10.8615778,0.0155729143 13.3059765,-1.56319402e-13 Z" id="leaf" fill="#C5CFD6"></path>
                            <path d="M21.3376913,14.6413767 C27.5850069,21.2960229 29.2831027,30.3249745 29.7814609,39.0761511 C30.0606151,43.9833868 29.7700594,49.1593434 31.2118042,53.919181 C32.4453787,57.993092 35.3373275,61.1072854 38.3182819,64.0505403 C44.3188091,69.9754389 51.0107852,75.9988444 52.7658888,84.5736503 C53.7957065,89.6058303 53.1005796,94.8035164 54.523567,99.7802864 C55.8174594,104.303997 58.0955633,108.748395 60.8665085,112.568434 C63.097535,115.644601 66.0041955,117.999712 68.4430245,120.867276 C69.1870678,121.742611 70.2529291,123.031168 69.9458228,124.266849 C69.5864899,125.714031 67.7431162,126.172161 66.4352477,125.944726 C63.385884,125.414889 60.8190633,122.503142 58.8252627,120.38633 C55.9097752,117.290969 53.432328,113.961654 51.4186666,110.227085 C49.1832266,106.079656 47.3832523,101.678717 46.6141992,97.0257156 C45.8160904,92.1985167 46.2133058,87.1677853 44.3908963,82.535065 C41.3242463,74.7399845 33.8860201,70.1398585 28.5081649,64.0643023 C21.8077295,56.4937595 22.8070205,47.0715048 23.4933204,37.7589838 C23.8703073,32.6413346 24.2450873,26.8620233 21.6591415,22.1894658 C20.6719877,20.4058395 18.4711201,18.7428117 18.0466881,16.7154534 C17.6579319,14.857947 19.7797242,12.9808841 21.3376913,14.6413767 Z" id="middle-thing" fill="#AFB9C5"></path>
                        </g>
                        <path d="M28,180 C28.0003799,218.05849 34.211229,238 67.0000931,238 C99.7889571,238 105.999806,218.05849 106,180 L28,180 Z" id="Base" fill="#89C5CC"></path>
                    </g>
                    <g id="Plant" transform="translate(521.000000, 84.000000)">
                        <g id="Succulents" transform="translate(13.000000, 0.000000)">
                            <path d="M3.38092413,0.208187006 C12.213925,21.197225 27.2292006,35.7805339 35.1818951,57.6048833 C39.8977667,70.5473636 41.863552,84.6195065 41.9827844,99.0319481 C42.0475621,106.860255 41.9112966,114.693588 41.8746494,122.521895 C41.8390346,130.156002 41.6315393,137.74129 40.9835037,145.326577 C40.3323712,152.952069 39.603299,160.486743 39.2817329,168.159259 C39.0313966,174.137461 38.9170678,181.09097 36.890634,186.544007 C35.2791907,190.880662 31.1834821,191.51603 30.0967128,186.256476 C29.4928087,183.332706 29.5689419,180.068279 29.6355262,177.063384 C29.7209502,173.208101 29.9452206,169.358561 30.0595494,165.503996 C30.5191876,150.036197 29.9232839,134.565527 30.2347849,119.091626 C30.5390596,103.9731 32.4823921,88.871087 30.3320805,73.8534305 C28.5564992,61.4519104 24.045542,50.802498 18.8615156,40.5931767 C13.873887,30.7708195 8.44546012,21.187174 5.07495258,10.0143908 C4.10715753,6.80560332 3.35898744,3.48051124 3,0.0301404047 C3.15691184,-0.0427294746 3.28388655,0.0164997376 3.38092413,0.208187006 Z" id="Thi-Succs!" fill="#C1DEE2"></path>
                            <path d="M0.973588404,41.6169557 C2.7226644,42.8799919 3.70001184,44.7275773 4.88222633,46.55055 C6.35238241,48.8169596 8.08078375,50.8630865 9.55056393,53.131137 C12.6152999,57.8596264 15.3078921,62.8785444 18.1016022,67.7986018 C23.4055915,77.1374401 27.4326388,87.0907728 29.4271794,97.8948808 C31.4946451,109.09156 32.052109,120.648403 32.9193169,132.012037 C33.8391512,144.05621 34.7653759,156.188167 34.8871684,168.278693 C34.9416743,173.695515 35.2345026,179.445837 34.5841907,184.824509 C34.1793433,188.173053 32.6682138,191.026883 29.2614062,190.999809 C22.0249003,190.94238 18.6274903,182.927289 17.2080811,176.353675 C15.118813,166.674363 14.7019367,156.392862 15.0327312,146.494087 C15.432316,134.55821 17.5039166,122.801595 18.4004449,110.911661 C19.3499755,98.3247808 18.8135622,85.9602344 14.4861685,74.1088605 C12.2999174,68.1197961 9.76257314,62.2743052 7.48422591,56.3250312 C6.51402064,53.7919851 5.71936199,51.1900238 4.40896463,48.831317 C2.95121334,46.2076145 1.14161698,43.8259359 -3.0475622e-14,41 C0.324404167,41.2059254 0.649184237,41.4114405 0.973588404,41.6169557 Z" id="Thi-Succs!" fill="#89C5CC"></path>
                            <path d="M84.3341427,16.5176702 C84.5560133,16.345237 84.7781571,16.1728402 85,16 C84.3609397,18.6926575 83.2065589,20.8798938 82.3241537,23.3413066 C81.5309592,25.5541267 81.1289139,28.058225 80.5946654,30.4769505 C79.3401416,36.1577567 77.8904265,41.7105156 76.7055048,47.4397171 C74.3598951,58.7767524 74.8035283,70.9901843 76.3418843,83.5681524 C77.7947507,95.4496261 80.092478,107.312713 81.1873452,119.191609 C82.0949201,129.04307 82.4850091,139.201741 81.6192928,148.601 C81.0309846,154.984369 79.1025548,162.605994 73.8481376,161.961759 C71.3744617,161.658503 70.0840672,158.681129 69.5641892,155.320205 C68.7291114,149.921644 68.5543005,144.245802 68.2287956,138.877693 C67.5023548,126.895908 67.3576487,114.950973 67.2142162,103.092499 C67.078414,91.904007 66.7045185,80.493842 67.4521172,69.5872699 C68.1731866,59.0630547 70.4284885,49.5797393 73.6530782,40.8297246 C75.3514544,36.2198206 76.9696914,31.5020505 78.8779164,27.1084404 C79.7930343,25.0009936 80.9110333,23.1387509 81.826535,21.0329683 C82.5626976,19.3391662 83.148338,17.6010976 84.3341427,16.5176702 Z" id="Thi-Succs!" fill="#C1DEE2"></path>
                            <path d="M3.20880772,76.3018223 C4.16572159,74.6953252 6.27206517,79.9934093 6.59263271,80.6597751 C6.45704992,80.3283084 6.32092787,79.9973172 6.18360206,79.666614 C8.08298767,82.8249267 9.82062484,86.1127294 10.9009829,89.7341519 C11.9700503,93.3191128 12.888301,96.9765376 13.89141,100.586979 C15.7735895,107.360999 18.2016657,113.942756 19.9069626,120.7778 C21.5685818,127.438224 21.9875459,133.985891 21.5852981,140.875198 C21.1672391,148.035491 20.9114736,155.305643 21.3991881,162.462075 C21.632116,165.880018 22.7427231,169.063767 23.5039187,172.354313 C24.2660416,175.648102 24.8662939,178.985809 25.7672782,182.238759 C25.974095,181.814996 26.0004407,183.231705 25.9999945,183.339248 C25.99434,184.151918 25.8808641,184.833382 25.6194022,185.603962 C24.9475372,187.585538 23.69062,189.268993 21.7779741,189.815552 C18.3215161,190.803119 15.1122443,187.659032 13.9975999,184.339008 C12.398575,179.575285 11.5174472,174.310953 10.7554023,169.304056 C10.0567643,164.712777 9.89144111,160.094092 10.0990013,155.439587 C10.5078659,146.260651 12.1689639,137.201885 12.618303,128.025744 C13.1073521,118.035719 11.1280407,108.649277 9.47082403,98.9248264 C8.67258323,94.2391921 7.90974363,89.5977685 6.35630439,85.1336672 C5.7273694,83.3259909 4.90736765,81.7307159 4.04759418,80.0614309 C3.55838288,79.1117083 2.56905129,77.4176151 3.20880772,76.3018223 Z" id="Thi-Succs!" fill="#C1DEE2"></path>
                            <path d="M31.2520927,60.6970481 C30.8556379,72.1418193 30.1720216,83.4997745 28.6461885,94.8239462 C27.0889362,106.380282 25.300327,117.896941 23.8019539,129.46349 C22.3433779,140.722452 20.8145443,152.168401 21.0183676,163.584496 C21.1684795,171.99346 19.7741408,186.218697 29.1133695,190.368969 C38.572085,194.57188 40.6010206,176.62338 41.2221153,170.699078 C42.4123367,159.332874 42.027006,147.846855 41.4493767,136.418583 C40.8563654,124.689401 39.8664321,113.01993 38.6395466,101.333567 C37.2768349,88.3528226 36.2076085,75.3135458 35.3494633,62.2958749 C34.92489,55.8569635 34.820295,49.4286586 34.9374389,42.9881759 C35.048171,36.9106701 34.8172608,30.7703111 32.6564941,25 C32.5432773,25.0821019 32.4308129,25.1642038 32.3175887,25.2459129" id="Thi-Succs!" fill="#69A1AC"></path>
                            <path d="M80.0827466,96.9552251 C78.3816844,99.4332953 76.6669438,101.887253 75.0605101,104.512188 C72.1861393,109.208575 69.5869207,114.431593 68.8049844,121.146824 C67.1686355,135.200365 68.4814231,150.378956 68.7982735,164.862679 C68.863082,167.822444 68.4887518,170.692884 69.6553203,173.509621 C70.713019,176.063863 72.6905254,178.01037 74.5755064,177.999958 C78.6108036,177.976942 77.9951288,168.09535 78.0017787,163.745849 C78.0139471,156.122577 77.1591232,148.422037 77.232697,140.805889 C77.3061571,133.260434 77.7650203,125.694154 78.8589994,118.527917 C79.96657,111.274547 81.5885624,104.309427 83.7291347,97.809562 C84.0261843,96.9075488 86.1579416,89.9374968 84.1438969,91.1387197" id="Thi-Succs!" fill="#89C5CC"></path>
                            <path d="M62.262195,22 C59.6091513,22 59.625416,35.2259973 59.5456053,36.9248132 C59.257379,43.055394 59.3250857,49.1876151 59.1427693,55.3194261 C58.7437159,68.7008304 58.2535042,82.1995075 56.243485,95.4263249 C55.1613125,102.546754 53.9066581,109.63561 52.557063,116.701913 C51.2036854,123.788718 49.3869518,130.866913 48.4965519,138.043518 C47.6417075,144.942523 48.1247324,151.977253 48.2419898,158.910292 C48.3592472,165.885155 48.5699324,172.87396 49.4837837,179.787726 C49.7092206,181.494333 49.9736172,183.194789 50.256548,184.891145 C50.4921976,186.304569 50.3548929,188.057511 50.7535682,189.400818 C51.3928102,191.552324 54.1328514,192.256371 55.9779537,191.920134 C60.9704721,191.008604 64.1594958,184.739838 65.8650239,180.159637 C68.0429859,174.311167 69.1985389,167.967363 70.3389619,161.803978 C71.6310631,154.821324 72.3883191,147.732059 72.7434956,140.623111 C73.4655743,126.17518 72.5388625,111.711667 71.5039711,97.310071 C70.928275,89.3006645 70.263312,81.3265219 69.2458201,73.3667309 C68.2324891,65.4409736 66.9324447,57.5504802 66.0859217,49.6013503 C65.4708876,43.8246382 64.8649315,38.0401352 64.4666346,32.2412807 C64.3713156,30.8586094 64.2911267,22 62.262195,22" id="Thi-Succs!" fill="#69A1AC"></path>
                            <path d="M58.9407927,118.138703 C58.5083549,104.252695 52.9265288,43.2589078 51.6565806,26.4671323 C51.3390091,22.2641696 48.2815387,4.76463908 47.8849122,-1.2490009e-14 C46.809561,1.346742 46.901454,22.3094454 46.9132785,27.1261944 C46.9257786,31.8908335 46.3348929,36.5764535 46.0308351,41.3154647 C45.7210339,46.1510074 38.5722965,108.600882 37.6445823,113.247206 C35.7989512,122.490734 34.5638007,131.976445 33.6110862,141.427558 C32.6830341,150.639478 31.2401108,160.357975 32.4820181,169.618161 C32.7674946,171.749969 33.2191894,173.847606 33.9546715,175.805999 C34.749276,177.922003 35.2938774,179.878687 35.9317231,182.09293 C36.9580872,185.659469 38.8148671,188.78948 41.667943,190.261798 C47.51734,193.280756 50.6582574,186.44667 52.2505069,180.496744 C54.7934439,170.994802 56.4255588,161.337812 57.190771,151.358766 C58.0374031,140.318301 59.2870808,129.255197 58.9407927,118.138703" id="Thi-Succs!" fill="#89C5CC"></path>
                        </g>
                        <g id="Planter" transform="translate(0.000000, 159.000000)">
                            <rect id="Vase" fill="#F8F9FA" x="10" y="0" width="91" height="91" rx="2"></rect>
                            <rect id="Leg" fill="#C5CFD6" x="0" y="10" width="10" height="113" rx="2"></rect>
                            <rect id="Leg" fill="#C5CFD6" x="50" y="10" width="10" height="113" rx="2"></rect>
                            <rect id="Leg" fill="#C5CFD6" x="101" y="10" width="10" height="113" rx="2"></rect>
                        </g>
                    </g>
                </g>
                <g id="A-Human/Standing" transform="translate(331.000000, 213.000000) scale(-1, 1) translate(-331.000000, -213.000000) translate(181.000000, 0.000000)">
                    <g id="Head/Front/Short-2" transform="translate(82.000000, 0.000000)">
                        <g id="Head" stroke-width="1" transform="translate(54.000000, 31.000000)" fill="#B28B67">
                            <path d="M8.26227388,34.4901268 C3.65436435,29.0813759 0.535634794,22.4528771 1.05677633,15.0254539 C2.55833022,-6.37502057 32.3485306,-1.66718886 38.1433414,9.13393292 C43.9381521,19.9350547 43.249578,47.3329958 35.7603014,49.2634576 C32.7735882,50.033323 26.4110012,48.1474609 19.935372,44.244306 L24,73 L0,73 L8.26227388,34.4901268 Z"></path>
                        </g>
                        <path d="M60.4181384,70.3075201 C57.4059021,56.9064588 48.8245327,47.7714043 50.1351137,41.781703 C51.0088343,37.7885688 53.3375617,35.3053788 57.1212959,34.3321331 C59.0782074,26.4155009 65.3896485,23.0482486 76.0556193,24.2303763 C92.0545754,26.0035679 101.819448,32.6477587 97.6024819,47.2678779 C93.7260987,47.2678779 89.0464758,45.8659867 82.57553,48.2678779 C80.5223249,49.0299883 79.0538125,51.3933595 78.1699927,55.3579915 L75.2457978,55.3579915 C72.4077436,50.6530572 69.6094038,48.9241222 66.8507787,50.1711866 C64.0921535,51.418251 63.4650732,54.4473753 64.9695377,59.2585597 L63.529076,70.3075201 L60.4181384,70.3075201 Z" id="Hair" fill="#191847"></path>
                    </g>
                    <g id="Bottom/Standing/Skinny-Jeans-Walk" transform="translate(0.000000, 187.000000)">
                        <polygon id="Leg" fill="#2026A2" points="128 0 176.081639 127.226909 209.783329 221 229 221 182.673688 9.81437154e-14"></polygon>
                        <path d="M116.116628,0 C115.593979,43.6541888 115.971833,102.427468 114.754071,105.148648 C113.942229,106.962768 88.6908725,127.632305 39,167.157257 L48.9049803,184 C107.899481,145.955797 138.9048,124.399339 141.920937,119.330628 C146.445143,111.72756 169.1744,41.763137 181,0 L116.116628,0 Z" id="Leg" fill="#1F28CF"></path>
                        <g id="Accessories/Shoe/Flat-Pointy" transform="translate(56.500000, 189.000000) rotate(50.000000) translate(-56.500000, -189.000000) translate(26.000000, 169.000000)" fill="#191847">
                            <path d="M0,40 L1,19 L22,19 C31.9576033,26 44.9576033,31.6666667 61,36 L61,40 L23,40 L10,38 L10,40 L0,40 Z" id="Shoe"></path>
                        </g>
                        <g id="Accessories/Shoe/Flat-Pointy" transform="translate(208.000000, 199.000000)" fill="#191847">
                            <path d="M0,40 L1,19 L22,19 C31.9576033,26 44.9576033,31.6666667 61,36 L61,40 L23,40 L10,38 L10,40 L0,40 Z" id="Shoe"></path>
                        </g>
                    </g>
                    <g id="Body/Lab-Coat" transform="translate(22.000000, 82.000000)">
                        <path d="M190.358872,88.6100216 L220.545493,114.201672 C229.013042,117.13396 236.02085,120.535571 241.568917,124.406506 C242.849565,125.748514 244.32618,128.3882 238.68408,127.555307 C233.04198,126.722415 227.069879,126.100082 226.151873,127.980187 C225.233867,129.860292 228.504819,132.414187 226.740072,134.914152 C225.563574,136.580795 220.885448,131.868337 212.705694,120.776779 L182.108696,105.506639 L190.358872,88.6100216 Z M53.6671405,77.5359191 L71.3789189,80.1081345 C52.3668948,121.357659 42.1743233,143.172797 40.8012044,145.553548 C37.7116869,150.910237 41.3451669,160.240318 42.7655846,165.17944 C35.5871864,167.252341 37.8797238,156.161524 28.8030963,158.927786 C20.5183715,161.452702 13.6817028,167.176559 5.47644547,160.370261 C4.4676573,159.533467 3.61787693,156.797168 6.82426992,155.202852 C14.8125642,151.230829 26.541227,143.962534 28.3644086,141.283781 C30.8506424,137.630823 39.2848864,116.381535 53.6671405,77.5359191 Z" id="Skin" fill="#B28B67"></path>
                        <path d="M122.979272,9.21054221 L133.596123,4.63843187 C151.668356,40.3896079 176.923065,74.3010145 216.52753,101.346035 L208.768287,117.911928 C174.615844,101.621394 142.570612,89.4491188 127.58307,61.8321985 C122.552864,52.5632462 123.64558,20.7613641 122.979272,9.21054221 Z" id="Coat-Back" fill="#C5CFD6" transform="translate(169.753401, 61.275180) rotate(5.000000) translate(-169.753401, -61.275180) "></path>
                        <path d="M90,110 C121.438326,113.333333 146.183737,113.333333 164.236234,110 C166.472817,109.587022 166.825667,105.842388 165.788454,103.300966 C149.636353,63.7244027 138.560302,29.1916266 138.560302,1.70263734 C135.596594,3.1967882 130.409827,3.42070538 123,2.37438888 C103.086202,30.7026762 93.9325378,63.2061447 90,110 Z" id="Shirt" fill="#323337"></path>
                        <path d="M118.049397,6.01740879e-14 L126.348425,5.5067062e-14 C128.280769,11.364871 134.375512,165.262588 153.190593,215.605966 L51.3853184,215.605966 C53.5924278,169.487243 71.0028709,114.087392 88.6398091,67.7283096 C73.0444357,81.9994875 59.4517855,106.180947 47.8618586,140.272687 L28.7926212,135.377648 C42.9712244,74.2810826 72.1224478,29.374879 116.246291,0.659036861 C116.341837,0.438307691 116.436936,0.218626329 116.531583,6.10622664e-14 L117.266004,6.06181771e-14 C117.53632,-0.173493435 117.807193,-0.346385506 118.078622,-0.518676213 L118.049397,6.1284311e-14 Z" id="Coat-Front" fill="#DDE3E9"></path>
                    </g>
                </g>
            </g>
        </g>
    </g>
</svg>